<?xml version="1.0" standalone="no"?>
<!DOCTYPE svg PUBLIC "-//W3C//DTD SVG 20010904//EN"
 "http://www.w3.org/TR/2001/REC-SVG-20010904/DTD/svg10.dtd">
<svg version="1.0" xmlns="http://www.w3.org/2000/svg"
 width="640.000000pt" height="640.000000pt" viewBox="0 0 640.000000 640.000000"
 preserveAspectRatio="xMidYMid meet">
<metadata>
Created by potrace 1.14, written by Peter Selinger 2001-2017
</metadata>
<g transform="translate(0.000000,640.000000) scale(0.100000,-0.100000)"
fill="#000000" stroke="none">
<path d="M2559 4744 c-20 -8 -41 -26 -48 -40 -13 -30 -15 -81 -1 -89 5 -3 6
-15 1 -28 -5 -12 -4 -29 2 -38 7 -11 -1 -85 -27 -251 -44 -282 -47 -293 -91
-357 -45 -65 -88 -151 -111 -221 -17 -50 -19 -105 -20 -650 -3 -771 4 -1020
31 -1075 38 -76 160 -107 422 -106 182 0 308 19 354 52 67 48 64 -1 67 884 3
906 5 876 -74 1031 -26 49 -55 107 -66 128 -20 40 -48 148 -67 266 -6 36 -20
110 -30 165 -17 94 -21 199 -7 212 11 11 6 53 -8 82 -10 18 -28 31 -54 39 -56
17 -229 14 -273 -4z m156 -676 c11 -49 23 -58 74 -59 39 0 43 -2 27 -12 -58
-37 -60 -41 -48 -88 6 -24 10 -44 8 -46 -1 -1 -18 9 -38 23 l-36 26 -38 -26
c-21 -14 -39 -24 -40 -23 -1 1 3 21 9 45 11 41 10 43 -23 72 l-35 29 46 1 c47
0 47 0 60 45 16 53 25 57 34 13z"/>
<path d="M3817 1753 c-2 -4 -10 -25 -16 -45 -12 -37 -14 -38 -62 -38 -27 0
-49 -3 -49 -7 0 -5 16 -19 35 -32 38 -26 40 -33 24 -80 -15 -44 -6 -48 39 -19
l37 25 35 -23 c39 -27 55 -30 47 -10 -3 8 -9 30 -12 48 -6 31 -3 37 29 59 20
13 36 27 36 31 0 4 -24 8 -52 10 -51 3 -53 4 -63 40 -11 40 -20 54 -28 41z"/>
</g>
</svg>
